<svg width="140" height="30" viewBox="0 0 140 30" fill="none" xmlns="http://www.w3.org/2000/svg">
<path d="M22.4191 13.371C22.0401 13.7523 21.7498 14.2125 21.569 14.7187C21.3882 15.225 21.3213 15.7649 21.373 16.3L21.355 16.282C21.4082 16.9119 21.3232 17.5457 21.1061 18.1394C20.889 18.733 20.5451 19.2721 20.0982 19.7191C19.6512 20.166 19.112 20.5101 18.5183 20.7271C17.9247 20.9442 17.2908 21.0292 16.661 20.976L16.6791 20.994C15.9257 20.9239 15.1689 21.0878 14.512 21.4635C13.8552 21.8392 13.3302 22.4083 13.0087 23.0933C12.6872 23.7783 12.5847 24.5457 12.7153 25.2911C12.846 26.0364 13.2033 26.7233 13.7386 27.2581C14.2739 27.7929 14.9611 28.1496 15.7065 28.2795C16.452 28.4095 17.2193 28.3063 17.904 27.9842C18.5887 27.662 19.1573 27.1366 19.5324 26.4794C19.9075 25.8222 20.0708 25.0654 20 24.312L20.019 24.33C19.9658 23.7002 20.0507 23.0663 20.2678 22.4726C20.4849 21.879 20.829 21.3399 21.2759 20.8929C21.7229 20.446 22.262 20.1019 22.8556 19.8849C23.4493 19.6678 24.0831 19.5828 24.713 19.636L24.694 19.618C25.3094 19.6733 25.929 19.5724 26.4951 19.3246C27.0611 19.0768 27.5554 18.6901 27.9322 18.2004C28.309 17.7107 28.5563 17.1337 28.6507 16.5231C28.7452 15.9124 28.6839 15.2878 28.4727 14.707C28.2615 14.1263 27.9071 13.6083 27.4424 13.201C26.9777 12.7937 26.4178 12.5103 25.8144 12.3771C25.211 12.2439 24.5837 12.2651 23.9907 12.4388C23.3977 12.6126 22.8582 12.9332 22.4221 13.371H22.4191Z" fill="#F4F5EF"/>
<path d="M15.0419 18.636L15.0229 18.618C15.5582 18.6719 16.0988 18.6062 16.6057 18.4256C17.1125 18.245 17.5729 17.9541 17.9535 17.5738C18.334 17.1935 18.6254 16.7333 18.8063 16.2266C18.9873 15.7199 19.0534 15.1794 18.9999 14.644L19.0189 14.662C18.9657 14.0321 19.0507 13.3983 19.2677 12.8046C19.4848 12.211 19.8289 11.6719 20.2758 11.2249C20.7228 10.778 21.2619 10.4339 21.8555 10.2169C22.4492 9.99976 23.083 9.91483 23.7129 9.968L23.6939 9.95C24.4474 10.0208 25.2043 9.85736 25.8615 9.4821C26.5188 9.10684 27.0442 8.53797 27.3662 7.8531C27.6882 7.16824 27.7911 6.40071 27.6609 5.6552C27.5307 4.90969 27.1737 4.22251 26.6385 3.68737C26.1034 3.15224 25.4162 2.7952 24.6707 2.66498C23.9252 2.53475 23.1577 2.63766 22.4728 2.95968C21.7879 3.28169 21.2191 3.80714 20.8438 4.46435C20.4685 5.12155 20.3051 5.87852 20.3759 6.632L20.3579 6.613C20.4112 7.24289 20.3264 7.87683 20.1094 8.47055C19.8924 9.06427 19.5483 9.60346 19.1014 10.0505C18.6544 10.4974 18.1152 10.8415 17.5215 11.0585C16.9277 11.2755 16.2938 11.3603 15.6639 11.307L15.6819 11.326C15.1466 11.2721 14.6059 11.3378 14.0991 11.5184C13.5923 11.6989 13.1319 11.9899 12.7513 12.3702C12.3707 12.7505 12.0794 13.2107 11.8984 13.7174C11.7175 14.2241 11.6514 14.7646 11.7049 15.3L11.6869 15.282C11.7399 15.9118 11.6548 16.5456 11.4377 17.1392C11.2205 17.7327 10.8765 18.2718 10.4296 18.7187C9.98267 19.1656 9.44363 19.5096 8.85007 19.7268C8.25651 19.9439 7.62272 20.029 6.99291 19.976L7.01091 19.994C6.25743 19.9232 5.50046 20.0866 4.84325 20.4619C4.18605 20.8372 3.6606 21.406 3.33859 22.0909C3.01657 22.7758 2.91365 23.5433 3.04388 24.2888C3.17411 25.0343 3.53115 25.7215 4.06628 26.2566C4.60142 26.7918 5.2886 27.1488 6.03411 27.279C6.77962 27.4092 7.54715 27.3063 8.23202 26.9843C8.91688 26.6623 9.48575 26.1369 9.86101 25.4797C10.2363 24.8224 10.3997 24.0655 10.3289 23.312L10.3479 23.33C10.2947 22.7001 10.3797 22.0663 10.5968 21.4726C10.8138 20.879 11.1579 20.3399 11.6048 19.8929C12.0518 19.446 12.5909 19.1019 13.1845 18.8849C13.7782 18.6678 14.412 18.5828 15.0419 18.636Z" fill="#F4F5EF"/>
<path d="M8.33997 16.6289C8.71899 16.2477 9.00917 15.7875 9.18981 15.2812C9.37045 14.7749 9.43709 14.2349 9.38497 13.6999L9.40396 13.7179C9.35076 13.0879 9.43572 12.4538 9.65293 11.86C9.87014 11.2662 10.2144 10.727 10.6616 10.28C11.1088 9.83306 11.6481 9.48907 12.242 9.27212C12.8359 9.05516 13.47 8.97046 14.1 9.02394L14.081 9.00594C14.8342 9.07651 15.5909 8.91302 16.2478 8.53778C16.9047 8.16255 17.4298 7.59382 17.7517 6.90917C18.0735 6.22451 18.1763 5.45726 18.0461 4.71203C17.9159 3.9668 17.5589 3.27988 17.024 2.74494C16.4891 2.21 15.8021 1.85308 15.0569 1.72286C14.3117 1.59263 13.5444 1.69545 12.8598 2.01727C12.1751 2.33909 11.6064 2.86426 11.2312 3.52116C10.8559 4.17806 10.6924 4.93472 10.763 5.68794L10.745 5.66994C10.7982 6.29979 10.7132 6.93366 10.4961 7.5273C10.279 8.12094 9.93499 8.66005 9.48803 9.10701C9.04108 9.55397 8.50196 9.898 7.90832 10.115C7.31468 10.3321 6.68082 10.4171 6.05097 10.3639L6.06897 10.3819C5.45354 10.3267 4.83413 10.4278 4.26815 10.6757C3.70217 10.9236 3.20792 11.3104 2.83121 11.8002C2.4545 12.2899 2.20752 12.8669 2.11314 13.4775C2.01877 14.0882 2.08006 14.7128 2.29133 15.2934C2.5026 15.8741 2.85703 16.392 3.32176 16.7992C3.78649 17.2065 4.34649 17.4898 4.94987 17.623C5.55324 17.7561 6.18047 17.7348 6.77344 17.5611C7.3664 17.3873 7.9059 17.0667 8.34196 16.6289H8.33997Z" fill="#F4F5EF"/>
<path d="M120.204 11.408C121.421 11.408 122.408 10.4212 122.408 9.204C122.408 7.98676 121.421 7 120.204 7C118.987 7 118 7.98676 118 9.204C118 10.4212 118.987 11.408 120.204 11.408Z" fill="#F4F5EF"/>
<path d="M34.6152 22.957C34.6152 24.3828 35.1523 25.4603 36.2266 26.1895C37.3008 26.9121 38.6745 27.2734 40.3477 27.2734C42.0404 27.2734 43.4043 26.8991 44.4395 26.1504C45.4746 25.3952 45.9922 24.3112 45.9922 22.8984C45.9922 21.5833 45.5788 20.5775 44.752 19.8809C43.9316 19.1777 42.7988 18.6341 41.3535 18.25C40.0449 17.8984 39.2116 17.6185 38.8535 17.4102C38.502 17.1953 38.3262 16.873 38.3262 16.4434C38.3262 16.0202 38.4824 15.6849 38.7949 15.4375C39.1074 15.1836 39.599 15.0566 40.2695 15.0566C40.9336 15.0566 41.4349 15.2194 41.7734 15.5449C42.112 15.8704 42.2812 16.3034 42.2812 16.8438V17.0879H45.6992V16.7461C45.6992 15.444 45.1979 14.4121 44.1953 13.6504C43.1992 12.8887 41.8809 12.5078 40.2402 12.5078C38.5931 12.5078 37.2747 12.8854 36.2852 13.6406C35.2956 14.3893 34.8008 15.4212 34.8008 16.7363C34.8073 17.9147 35.2142 18.849 36.0215 19.5391C36.8288 20.2292 37.9681 20.763 39.4395 21.1406C40.7546 21.4792 41.5911 21.7819 41.9492 22.0488C42.3073 22.3158 42.4863 22.7031 42.4863 23.2109C42.4863 23.6797 42.3008 24.054 41.9297 24.334C41.5586 24.6139 41.028 24.7539 40.3379 24.7539C39.6348 24.7539 39.0879 24.5977 38.6973 24.2852C38.3066 23.9661 38.1113 23.4909 38.1113 22.8594V22.5762H34.6152V22.957ZM47.6816 27H51.0801V20.7891C51.2428 20.3984 51.4967 20.0794 51.8418 19.832C52.1868 19.5781 52.5579 19.4512 52.9551 19.4512C53.1178 19.4512 53.2643 19.4609 53.3945 19.4805C53.5247 19.4935 53.6452 19.5163 53.7559 19.5488V16.7461C53.6973 16.7201 53.5996 16.6908 53.4629 16.6582C53.3262 16.6257 53.1829 16.6094 53.0332 16.6094C52.6165 16.6094 52.2292 16.7428 51.8711 17.0098C51.5195 17.2702 51.2461 17.5859 51.0508 17.957H51.002L50.9531 16.873H47.6816V27ZM55.416 27H65.3281V24.3926H58.8535V20.9746H64.3418V18.4453H58.8535V15.4082H65.2109V12.7812H55.416V27ZM65.4648 16.873L69.3223 27H72.5059L76.3438 16.873H73.3359L71.4121 22.4395C71.3405 22.6673 71.2852 22.8757 71.2461 23.0645C71.207 23.2467 71.1745 23.4323 71.1484 23.6211H71.0898C71.0638 23.4323 71.0312 23.2467 70.9922 23.0645C70.9531 22.8757 70.8978 22.6673 70.8262 22.4395L68.9023 16.873H65.4648ZM76.6367 22.0781C76.6367 23.6667 77.125 24.9329 78.1016 25.877C79.0846 26.821 80.4258 27.293 82.125 27.293C83.2513 27.293 84.2148 27.0846 85.0156 26.668C85.8229 26.2513 86.3861 25.6914 86.7051 24.9883L84.2148 23.6211C83.9935 23.9531 83.7038 24.2461 83.3457 24.5C82.9876 24.7474 82.5612 24.8711 82.0664 24.8711C81.3893 24.8711 80.8717 24.6465 80.5137 24.1973C80.1621 23.7415 79.9863 23.097 79.9863 22.2637V21.5508C79.9863 20.7109 80.1491 20.0664 80.4746 19.6172C80.8001 19.1615 81.2721 18.9336 81.8906 18.9336C82.4375 18.9336 82.8574 19.0996 83.1504 19.4316C83.4434 19.7572 83.5898 20.1641 83.5898 20.6523V20.8574H78.8828V22.7031H86.9102V21.6094C86.9102 20.0339 86.4642 18.8001 85.5723 17.9082C84.6868 17.0163 83.4727 16.5703 81.9297 16.5703C80.3867 16.5703 79.1172 17.0423 78.1211 17.9863C77.1315 18.9303 76.6367 20.1901 76.6367 21.7656V22.0781ZM88.541 27H91.9199V20.3984C92.0762 20.0078 92.3105 19.7116 92.623 19.5098C92.9421 19.3014 93.2741 19.1973 93.6191 19.1973C94.0553 19.1973 94.3906 19.3079 94.625 19.5293C94.8594 19.7441 94.9766 20.1315 94.9766 20.6914V27H98.3555V20.6816C98.3555 19.1777 98.0169 18.1328 97.3398 17.5469C96.6693 16.9544 95.8099 16.6582 94.7617 16.6582C94.1107 16.6582 93.5247 16.7852 93.0039 17.0391C92.4896 17.293 92.1185 17.612 91.8906 17.9961H91.8418L91.793 16.873H88.541V27ZM99.4297 19.3047H106.031V16.873H99.4297V19.3047ZM100.846 23.7969C100.846 24.9948 101.158 25.8737 101.783 26.4336C102.408 26.9935 103.245 27.2734 104.293 27.2734C104.671 27.2734 105.009 27.2409 105.309 27.1758C105.608 27.1172 105.833 27.0521 105.982 26.9805V24.6465C105.859 24.6986 105.725 24.7441 105.582 24.7832C105.439 24.8158 105.292 24.832 105.143 24.832C104.856 24.832 104.628 24.7474 104.459 24.5781C104.29 24.4023 104.205 24.0671 104.205 23.5723V14.4219H100.875V17.6934L100.846 17.957V23.7969ZM106.959 23.7285V23.8652C106.965 24.972 107.392 25.8184 108.238 26.4043C109.091 26.9902 110.283 27.2832 111.812 27.2832C113.355 27.2832 114.537 26.9902 115.357 26.4043C116.178 25.8184 116.588 24.9818 116.588 23.8945C116.588 23.0286 116.308 22.3483 115.748 21.8535C115.188 21.3522 114.29 20.9844 113.053 20.75C111.92 20.5352 111.214 20.3529 110.934 20.2031C110.66 20.0469 110.523 19.8385 110.523 19.5781C110.523 19.3177 110.624 19.1159 110.826 18.9727C111.035 18.8229 111.363 18.748 111.812 18.748C112.281 18.748 112.626 18.8457 112.848 19.041C113.076 19.2363 113.189 19.5098 113.189 19.8613V20.0469H116.432V19.9102C116.438 18.875 116.025 18.0612 115.191 17.4688C114.358 16.8698 113.242 16.5703 111.842 16.5703C110.436 16.5703 109.322 16.8535 108.502 17.4199C107.682 17.9863 107.271 18.7773 107.271 19.793C107.271 20.6068 107.535 21.2773 108.062 21.8047C108.59 22.3255 109.475 22.7064 110.719 22.9473C111.832 23.1621 112.529 23.3411 112.809 23.4844C113.095 23.6276 113.238 23.8522 113.238 24.1582C113.238 24.4577 113.118 24.6986 112.877 24.8809C112.643 25.0566 112.278 25.1445 111.783 25.1445C111.295 25.1445 110.911 25.0534 110.631 24.8711C110.351 24.6823 110.211 24.3698 110.211 23.9336V23.748L106.959 23.7285Z" fill="#F4F5EF"/>
</svg>
