<svg width="66" height="66" viewBox="0 0 66 66" fill="none" xmlns="http://www.w3.org/2000/svg">
<path d="M2.06246 2.06246C3.23451 0.890765 4.82393 0.232544 6.48121 0.232544C8.13848 0.232544 9.72791 0.890765 10.9 2.06246L33 24.1625L55.1 2.06246C56.2787 0.923971 57.8575 0.294006 59.4962 0.308246C61.1349 0.322486 62.7025 0.979792 63.8613 2.13859C65.0201 3.29739 65.6774 4.86497 65.6917 6.5037C65.7059 8.14243 65.0759 9.7212 63.9375 10.9L41.8375 33L63.9375 55.1C65.0759 56.2787 65.7059 57.8575 65.6917 59.4962C65.6774 61.1349 65.0201 62.7025 63.8613 63.8613C62.7025 65.0201 61.1349 65.6774 59.4962 65.6917C57.8575 65.7059 56.2787 65.0759 55.1 63.9375L33 41.8375L10.9 63.9375C9.7212 65.0759 8.14243 65.7059 6.5037 65.6917C4.86497 65.6774 3.29739 65.0201 2.13859 63.8613C0.979792 62.7025 0.322486 61.1349 0.308246 59.4962C0.294006 57.8575 0.923971 56.2787 2.06246 55.1L24.1625 33L2.06246 10.9C0.890765 9.72791 0.232544 8.13848 0.232544 6.48121C0.232544 4.82393 0.890765 3.23451 2.06246 2.06246Z" fill="#F4F5EF"/>
</svg>
